<svg width="24" height="24" viewBox="0 0 24 24" fill="none" xmlns="http://www.w3.org/2000/svg">
<path d="M17 2C16.4477 2 16 2.44772 16 3C16 3.55228 16.4477 4 17 4H20C20.5523 4 21 3.55228 21 3C21 2.44772 20.5523 2 20 2H17Z" fill="#9E9E9E"/>
<path fill-rule="evenodd" clip-rule="evenodd" d="M21 21H3V11.5146C3 11.1917 3.15597 10.8886 3.41876 10.7009L5.61857 9.12959C6.09356 8.79031 6.75698 8.92829 7.0573 9.42883L7.4427 10.0712C7.74302 10.5717 8.40644 10.7097 8.88143 10.3704L10.6186 9.12959C11.0936 8.79031 11.757 8.92829 12.0573 9.42883L12.7087 10.5145C12.8894 10.8157 13.2149 11 13.5662 11H15C15.5523 11 16 10.5523 16 10V7C16 6.44772 16.4477 6 17 6H20C20.5523 6 21 6.44772 21 7V21ZM6 14.5C6 14.2239 6.22386 14 6.5 14H9.5C9.77614 14 10 14.2239 10 14.5V17.5C10 17.7761 9.77614 18 9.5 18H6.5C6.22386 18 6 17.7761 6 17.5V14.5ZM13.5 14C13.2239 14 13 14.2239 13 14.5V17.5C13 17.7761 13.2239 18 13.5 18H16.5C16.7761 18 17 17.7761 17 17.5V14.5C17 14.2239 16.7761 14 16.5 14H13.5Z" fill="#9E9E9E"/>
</svg>
