<svg width="24" height="24" viewBox="0 0 24 24" fill="none" xmlns="http://www.w3.org/2000/svg">
<path fill-rule="evenodd" clip-rule="evenodd" d="M12.8123 3.36098L19.8123 6.47209C20.5345 6.79309 21 7.50933 21 8.29971V19C21 20.1045 20.1046 21 19 21H5C3.89543 21 3 20.1045 3 19V8.29971C3 7.50933 3.46547 6.79309 4.18772 6.47209L11.1877 3.36098C11.7049 3.13114 12.2951 3.13114 12.8123 3.36098ZM10.75 8.81132C10.3358 8.81132 10 9.1471 10 9.56132V12.0613C10 12.4755 10.3358 12.8113 10.75 12.8113H13.25C13.6642 12.8113 14 12.4755 14 12.0613V9.56132C14 9.1471 13.6642 8.81132 13.25 8.81132H10.75ZM13 15.5613C13 15.1471 13.3358 14.8113 13.75 14.8113H16.25C16.6642 14.8113 17 15.1471 17 15.5613V18.0613C17 18.4755 16.6642 18.8113 16.25 18.8113H13.75C13.3358 18.8113 13 18.4755 13 18.0613V15.5613ZM7.75 14.8113C7.33579 14.8113 7 15.1471 7 15.5613V18.0613C7 18.4755 7.33579 18.8113 7.75 18.8113H10.25C10.6642 18.8113 11 18.4755 11 18.0613V15.5613C11 15.1471 10.6642 14.8113 10.25 14.8113H7.75Z" fill="#9E9E9E"/>
</svg>
